<svg xmlns="http://www.w3.org/2000/svg" xmlns:xlink="http://www.w3.org/1999/xlink" width="23.999" height="24" viewBox="0 0 23.999 24">
  <defs>
    <clipPath id="clip-path">
      <rect id="Rectangle_1480" data-name="Rectangle 1480" width="23.999" height="24" fill="#079628"/>
    </clipPath>
  </defs>
  <g id="Group_40118" data-name="Group 40118" transform="translate(0 1)">
    <g id="Group_40113" data-name="Group 40113" transform="translate(0 -1)" clip-path="url(#clip-path)">
      <path id="Path_32400" data-name="Path 32400" d="M22.846,6.868A12,12,0,0,0,1.83,5.64,12,12,0,0,0,11.989,24h.145a12.056,12.056,0,0,0,6.293-1.865,1.171,1.171,0,1,0-1.256-1.977,9.65,9.65,0,0,1-10.29.037A9.657,9.657,0,1,1,21.6,13.086a1.172,1.172,0,0,0,2.329.258A12.046,12.046,0,0,0,22.846,6.868Z" transform="translate(0 0)" fill="#079628"/>
      <g id="_03_Login" data-name="03 Login" transform="translate(11.999 3.515) rotate(45)">
        <path id="Path_21" data-name="Path 21" d="M231.586,12a.586.586,0,0,1-.586-.586V.586a.586.586,0,0,1,1.172,0V11.414A.586.586,0,0,1,231.586,12Z" transform="translate(-225.586 0)" fill="#079628" stroke="#079628" stroke-width="1"/>
        <path id="Path_22" data-name="Path 22" d="M11.414,232.172H.586a.586.586,0,0,1,0-1.172H11.414a.586.586,0,0,1,0,1.172Z" transform="translate(0 -225.586)" fill="#079628" stroke="#079628" stroke-width="1"/>
      </g>
    </g>
  </g>
</svg>
