<?xml version="1.0" encoding="utf-8"?>
<!-- Generator: Adobe Illustrator 27.1.1, SVG Export Plug-In . SVG Version: 6.00 Build 0)  -->
<svg version="1.1" id="Layer_1" xmlns="http://www.w3.org/2000/svg" xmlns:xlink="http://www.w3.org/1999/xlink" x="0px" y="0px"
	 viewBox="0 0 104 104" style="enable-background:new 0 0 104 104;" xml:space="preserve">
<g id="Group_40170" transform="translate(25.5 16.5)">
	<g transform="matrix(1, 0, 0, 1, -25.5, -16.5)">
			<g id="horizontal-shot-cheerful-hipster-guy-holds-smart-phone-sends-funny-photos-from-party-friend-types-browses-network-dressed-casually-poses-against-yello-2" transform="translate(25.5 16.5)">
			<path fill= '#E9E9E9' d="M26.5-15.5L26.5-15.5c28.2,0,51,22.8,51,51l0,0c0,28.2-22.8,51-51,51l0,0c-28.2,0-51-22.8-51-51l0,0
				C-24.5,7.3-1.7-15.5,26.5-15.5z"/>
			<path class="st1" fill="none" stroke="#D9D9D9" d="M26.5-15L26.5-15C54.4-15,77,7.6,77,35.5l0,0C77,63.4,54.4,86,26.5,86l0,0C-1.4,86-24,63.4-24,35.5l0,0
				C-24,7.6-1.4-15,26.5-15z"/>
		</g>
	</g>
	<g id="q" transform="translate(25.282 26.506)">
		<g id="Group_40126" transform="translate(3.507 4.25)">
			<path id="Path_32403" fill= '#8F8F8F' d="M12.4-5.6c2.8,1.6,3.8,5.2,2.2,8c-1,1.8-3,3-5.1,3c-1.1,0-2,0.9-2,2s0.9,2,2,2c0,0,0,0,0,0
				c5.4,0,9.8-4.4,9.8-9.8c0-3.5-1.9-6.7-4.9-8.5c-0.9-0.5-2.1-0.2-2.7,0.7C11.1-7.3,11.4-6.1,12.4-5.6L12.4-5.6z"/>
			<path id="Path_32404" fill= '#8F8F8F' d="M-14.1,9.3c1.1,0,2-0.9,2-2s-0.9-2-2-2c0,0,0,0,0,0c-3.2,0-5.9-2.6-5.9-5.9
				c0-2.1,1.1-4,2.9-5.1c0.9-0.5,1.3-1.7,0.7-2.7C-16.8-9.2-18-9.5-18.9-9c0,0,0,0-0.1,0c-4.7,2.7-6.3,8.7-3.6,13.4
				C-20.8,7.5-17.6,9.3-14.1,9.3L-14.1,9.3z"/>
			<g id="Group_40131">
				<path id="Path_32402" fill= '#8F8F8F' d="M-2.3,9.3c6.9,0,12.4-5.6,12.4-12.4c0-6.9-5.6-12.4-12.4-12.4c-6.9,0-12.4,5.6-12.4,12.4
					c0,0,0,0,0,0C-14.7,3.8-9.2,9.3-2.3,9.3z M-2.3-11.6c4.7,0,8.5,3.8,8.5,8.5S2.4,5.4-2.3,5.4s-8.5-3.8-8.5-8.5
					C-10.8-7.8-7-11.6-2.3-11.6L-2.3-11.6z"/>
				<path id="Path_32405" fill= '#8F8F8F' d="M-2.3,13.2c-5.5,0-10.3,3.7-11.6,9.1l-0.1,0.2l1.9,0.5l2,0.2c1.1-4.3,5.5-7,9.8-5.9
					c2.9,0.7,5.1,3,5.9,5.9c0.2,0.9,1,1.5,1.9,1.5c0.2,0,0.3,0,0.5-0.1c1-0.3,1.7-1.3,1.4-2.4C8,17,3.2,13.2-2.3,13.2z"/>
			</g>
			<path id="Path_32406" fill= '#8F8F8F' d="M-13.4,15.2c0-1.1-0.9-2-2-2c-4,0-7.4,2.7-8.4,6.6l-0.7,2.8c-0.3,1,0.4,2.1,1.4,2.4
				c0,0,0,0,0,0c0.2,0,0.3,0.1,0.5,0.1c0.9,0,1.7-0.6,1.9-1.5l0.7-2.8c0.5-2.1,2.4-3.6,4.6-3.6C-14.3,17.1-13.4,16.3-13.4,15.2
				L-13.4,15.2z"/>
			<path id="Path_32407" fill= '#8F8F8F' d="M19.8,22.6l-0.7-2.8c-1-3.9-4.4-6.6-8.4-6.6c-1.1,0-2,0.9-2,2s0.9,2,2,2
				c2.2,0,4.1,1.5,4.6,3.6l0.7,2.8c0.2,0.9,1,1.5,1.9,1.5c0.2,0,0.3,0,0.5-0.1C19.5,24.7,20.1,23.6,19.8,22.6L19.8,22.6z"/>
		</g>
	</g>
</g>
</svg>
