<svg id="Group_39755" data-name="Group 39755" xmlns="http://www.w3.org/2000/svg" width="57" height="57" viewBox="0 0 57 57">
	<rect id="portrait-nice-white-gray-domestic-cat-with-big-round-green-eyes-laying-relaxed-outdoors-blurred-light-sunny-animal-world-concept" width="57" height="57" rx="28.5" fill="#e9e9e9"/>
	<g id="k" transform="translate(16.51 15.511)">
		<g id="Group_40132" data-name="Group 40132" transform="translate(-5.758 -5.761)">
			<path id="Path_32420" data-name="Path 32420" d="M15.475,19.7A7.225,7.225,0,1,0,8.25,12.475,7.228,7.228,0,0,0,15.475,19.7Zm0-11.56a4.335,4.335,0,1,1-4.335,4.335A4.342,4.342,0,0,1,15.475,8.14Z" transform="translate(2.782 0)" fill="#8f8f8f"/>
			<path id="Path_32421" data-name="Path 32421" d="M30.762,20.244A9.214,9.214,0,0,0,21.8,13.25H14.693a9.214,9.214,0,0,0-8.959,6.994l-.443,1.811a1.449,1.449,0,1,0,2.813.694l.443-1.811a6.326,6.326,0,0,1,6.146-4.8H21.8a6.33,6.33,0,0,1,6.146,4.8l.443,1.811a1.442,1.442,0,0,0,1.406,1.1,1.067,1.067,0,0,0,.347-.039,1.456,1.456,0,0,0,1.06-1.753Z" transform="translate(0 7.413)" fill="#8f8f8f"/>
		</g>
	</g>
</svg>
