<svg xmlns="http://www.w3.org/2000/svg" width="17.972" height="19.5" viewBox="0 0 17.972 19.5">
  <g id="h" transform="translate(-3.25 -2.752)">
    <g id="Group_40208" data-name="Group 40208" transform="translate(3.25 2.753)">
      <path id="Path_32785" data-name="Path 32785" d="M18.912,5.317H16.6l-2.67-2a2.835,2.835,0,0,0-3.389,0l-2.67,2H5.561a2.311,2.311,0,0,0,0,4.621H18.912a2.311,2.311,0,1,0,0-4.621Zm-7.446-.77a1.294,1.294,0,0,1,1.54,0l1.027.77H10.439ZM18.912,8.4H5.561a.77.77,0,0,1,0-1.54H18.912a.77.77,0,1,1,0,1.54Z" transform="translate(-3.25 -2.753)"/>
      <path id="Path_32786" data-name="Path 32786" d="M18.994,11.26a.767.767,0,0,0-.883.637L17,18.562a2.3,2.3,0,0,1-2.28,1.931H9.669a2.306,2.306,0,0,1-2.28-1.931L6.28,11.9a.77.77,0,0,0-1.52.246l1.109,6.665a3.832,3.832,0,0,0,3.8,3.214h5.053a3.841,3.841,0,0,0,3.8-3.214l1.109-6.665a.767.767,0,0,0-.637-.883Z" transform="translate(-3.209 -2.523)"/>
      <path id="Path_32787" data-name="Path 32787" d="M9.873,16.259H10c.421-.054.7-.354.637-.662L9.78,11.746a.779.779,0,0,0-.883-.478c-.421.054-.7.354-.637.662l.852,3.851a.739.739,0,0,0,.76.485Z" transform="translate(-3.115 -2.153)"/>
      <path id="Path_32788" data-name="Path 32788" d="M14.19,16.257a.739.739,0,0,0,.76-.485L15.8,11.92c.072-.316-.216-.609-.637-.662a.771.771,0,0,0-.883.478l-.852,3.851c-.072.316.216.609.637.662h.123Z" transform="translate(-2.977 -2.154)"/>
    </g>
  </g>
</svg>
