<svg xmlns="http://www.w3.org/2000/svg" width="20" height="18.125" viewBox="0 0 20 18.125">
  <g id="h" transform="translate(-2.257 -3.25)">
    <g id="Group_40142" data-name="Group 40142" transform="translate(2.257 3.25)">
      <path id="Path_32422" data-name="Path 32422" d="M11.17,13.089A4.92,4.92,0,1,0,6.25,8.17,4.924,4.924,0,0,0,11.17,13.089Zm0-8.286A3.366,3.366,0,1,1,7.8,8.17,3.373,3.373,0,0,1,11.17,4.8Z" transform="translate(-2.115 -3.25)" fill="#171e14"/>
      <path id="Path_32423" data-name="Path 32423" d="M21.67,12.869,20.541,11.74a2.041,2.041,0,0,0-2.879,0L15.02,14.382a.427.427,0,0,0-.093-.021H8.216a5.8,5.8,0,0,0-5.634,4.4l-.3,1.222a.775.775,0,0,0,.57.943.573.573,0,0,0,.186.021.784.784,0,0,0,.756-.59l.3-1.222a4.252,4.252,0,0,1,4.122-3.221h5.272a2.059,2.059,0,0,0-.559,1.056l-.6,3.2a.755.755,0,0,0,.218.694.776.776,0,0,0,.549.228.684.684,0,0,0,.145-.01l3.2-.6a1.986,1.986,0,0,0,1.056-.559l4.164-4.164a2.032,2.032,0,0,0,0-2.879Zm-1.1,1.781-4.164,4.164a.491.491,0,0,1-.249.135h0l-2.082.394.394-2.092A.491.491,0,0,1,14.606,17l4.164-4.164a.487.487,0,0,1,.342-.145.447.447,0,0,1,.342.145l1.129,1.129a.488.488,0,0,1,0,.684Z" transform="translate(-2.257 -2.968)" fill="#171e14"/>
    </g>
  </g>
</svg>
