<svg xmlns="http://www.w3.org/2000/svg" width="19.605" height="19.605" viewBox="0 0 19.605 19.605">
  <g id="edit" transform="translate(-2.195 -2.2)">
    <path id="Path_32817" data-name="Path 32817" d="M16.446,3.16A3.107,3.107,0,1,1,20.84,7.554l-3.59,3.59a12.928,12.928,0,0,1-6.007,3.4l-.694.174a1.045,1.045,0,0,1-1.268-1.267l.173-.694a12.929,12.929,0,0,1,3.4-6.007ZM17.78,4a2.045,2.045,0,0,0,.695,1.524A2.046,2.046,0,0,0,20,6.22,1.607,1.607,0,0,0,17.78,4Zm.994,3.5A4.242,4.242,0,0,1,16.5,5.226L13.917,7.811a11.429,11.429,0,0,0-3,5.268,11.429,11.429,0,0,0,5.268-3Z" stroke="#000" stroke-width="0.1" fill-rule="evenodd"/>
    <path id="Path_32818" data-name="Path 32818" d="M12,3.75a12.6,12.6,0,0,0-2.878.333A6.761,6.761,0,0,0,4.083,9.122a12.6,12.6,0,0,0,0,5.757,6.761,6.761,0,0,0,5.039,5.039,12.6,12.6,0,0,0,5.757,0,6.761,6.761,0,0,0,5.039-5.039A12.6,12.6,0,0,0,20.25,12a.75.75,0,1,1,1.5,0,14.1,14.1,0,0,1-.373,3.221,8.261,8.261,0,0,1-6.156,6.156,14.1,14.1,0,0,1-6.442,0,8.261,8.261,0,0,1-6.156-6.156,14.1,14.1,0,0,1,0-6.442A8.261,8.261,0,0,1,8.779,2.623,14.1,14.1,0,0,1,12,2.25a.75.75,0,0,1,0,1.5Z" stroke="#000" stroke-width="0.1" fill-rule="evenodd"/>
  </g>
</svg>
