<svg xmlns="http://www.w3.org/2000/svg" width="46" height="46" viewBox="0 0 46 46">
  <g id="Group_40169" data-name="Group 40169" transform="translate(-110.494 -110.494)">
    <circle id="Ellipse_23" data-name="Ellipse 23" cx="23" cy="23" r="23" transform="translate(110.494 110.494)" fill="#079628"/>
    <g id="Icons" transform="translate(122.465 124.119)">
      <path id="Path_31499" data-name="Path 31499" d="M20.515,16a5.515,5.515,0,1,0,5.515,5.515A5.515,5.515,0,0,0,20.515,16Zm0,9.927a4.412,4.412,0,1,1,4.412-4.412A4.412,4.412,0,0,1,20.515,25.927Z" transform="translate(-9.485 -11.588)" fill="#fff" stroke="#fff" stroke-width="0.4"/>
      <path id="Path_31500" data-name="Path 31500" d="M23.2,10.206H20.784l-.458-.915A2.526,2.526,0,0,0,18.236,8H13.824a2.526,2.526,0,0,0-2.09,1.291l-.458.915H8.86A3.86,3.86,0,0,0,5,14.066V22.89a3.86,3.86,0,0,0,3.86,3.86H23.2a3.86,3.86,0,0,0,3.86-3.86V14.066A3.86,3.86,0,0,0,23.2,10.206ZM25.957,22.89A2.757,2.757,0,0,1,23.2,25.648H8.86A2.757,2.757,0,0,1,6.1,22.89V14.066A2.757,2.757,0,0,1,8.86,11.309h2.757a.551.551,0,0,0,.491-.3l.612-1.219a1.412,1.412,0,0,1,1.1-.684h4.412a1.412,1.412,0,0,1,1.1.684l.612,1.219a.552.552,0,0,0,.491.3H23.2a2.757,2.757,0,0,1,2.757,2.757Z" transform="translate(-5 -8)" fill="#fff" stroke="#fff" stroke-width="0.4"/>
    </g>
  </g>
</svg>
