<svg xmlns="http://www.w3.org/2000/svg" width="134" height="134" viewBox="0 0 134 134">
  <g id="Group_40168" data-name="Group 40168" transform="translate(-121 -281)">
    <g id="Group_39757" data-name="Group 39757" transform="translate(121.428 281.428)">
      <g id="Group_39755" data-name="Group 39755" transform="translate(0 0)">
        <rect id="Rectangle_1368" data-name="Rectangle 1368" width="134" height="134" rx="67" transform="translate(-0.428 -0.428)" fill="#e8f6eb"/>
      </g>
    </g>
    <path id="world-wide-web" d="M66.139,45.206a34.02,34.02,0,0,0,0-22.381,2.45,2.45,0,0,0-.108-.307A34.016,34.016,0,0,0,2,22.518a2.416,2.416,0,0,0-.108.307,34.02,34.02,0,0,0,0,22.381A2.449,2.449,0,0,0,2,45.513a34.016,34.016,0,0,0,64.027,0A2.43,2.43,0,0,0,66.139,45.206ZM34.017,63.155c-1.3,0-3.384-2.344-5.13-7.582a53.4,53.4,0,0,1-2.009-8.594H41.155a53.443,53.443,0,0,1-2.008,8.594C37.4,60.811,35.312,63.155,34.017,63.155ZM26.287,42.1c-.234-2.6-.358-5.312-.358-8.088s.124-5.488.358-8.088H41.747c.234,2.6.358,5.312.358,8.088s-.124,5.488-.358,8.088ZM4.878,34.016a29.055,29.055,0,0,1,1.143-8.088H21.4c-.228,2.654-.344,5.373-.344,8.088s.115,5.435.344,8.088H6.021A29.057,29.057,0,0,1,4.878,34.016ZM34.017,4.876c1.3,0,3.384,2.344,5.13,7.582a53.4,53.4,0,0,1,2.008,8.593H26.878a53.4,53.4,0,0,1,2.009-8.593C30.633,7.22,32.722,4.876,34.017,4.876Zm12.62,21.052H62.013a29.189,29.189,0,0,1,0,16.176H46.637c.228-2.654.344-5.373.344-8.088S46.865,28.581,46.637,25.928Zm13.471-4.876H46.078c-.867-5.98-2.355-11.346-4.442-15.163A29.265,29.265,0,0,1,60.108,21.052ZM26.4,5.889c-2.087,3.817-3.575,9.182-4.442,15.163H7.926A29.268,29.268,0,0,1,26.4,5.889ZM7.926,46.979h14.03c.867,5.98,2.355,11.346,4.442,15.163A29.267,29.267,0,0,1,7.926,46.979ZM41.635,62.142c2.087-3.817,3.575-9.182,4.442-15.163h14.03A29.266,29.266,0,0,1,41.635,62.142Z" transform="translate(153.999 314)" fill="#a0d7ad"/>
  </g>
</svg>
