<svg xmlns="http://www.w3.org/2000/svg" width="134" height="134" viewBox="0 0 134 134">
  <g id="Group_40167" data-name="Group 40167" transform="translate(-121 -223)">
    <g id="Group_39757" data-name="Group 39757" transform="translate(121.428 223.428)">
      <g id="Group_39755" data-name="Group 39755" transform="translate(0 0)">
        <rect id="Rectangle_1368" data-name="Rectangle 1368" width="134" height="134" rx="67" transform="translate(-0.428 -0.428)" fill="#e8f6eb"/>
      </g>
    </g>
    <g id="u" transform="translate(150.363 257.568)">
      <g id="k" transform="translate(11.147 5.942)">
        <g id="Group_40132" data-name="Group 40132" transform="translate(-0.511 -0.511)">
          <path id="Path_32420" data-name="Path 32420" d="M23.5,35.746A15.248,15.248,0,1,0,8.25,20.5,15.253,15.253,0,0,0,23.5,35.746Zm0-24.4A9.149,9.149,0,1,1,14.349,20.5,9.162,9.162,0,0,1,23.5,11.349Z" transform="translate(3.959 -5.25)" fill="#a0d7ad"/>
          <path id="Path_32421" data-name="Path 32421" d="M59.093,28.01A19.445,19.445,0,0,0,40.186,13.25h-15A19.445,19.445,0,0,0,6.275,28.01l-.935,3.822A3.057,3.057,0,1,0,11.276,33.3l.935-3.822A13.35,13.35,0,0,1,25.182,19.349h15A13.36,13.36,0,0,1,53.156,29.474l.935,3.822a3.043,3.043,0,0,0,2.968,2.318,2.251,2.251,0,0,0,.732-.081,3.073,3.073,0,0,0,2.236-3.7Z" transform="translate(-5.247 19.279)" fill="#a0d7ad"/>
        </g>
      </g>
    </g>
  </g>
</svg>
