<svg xmlns="http://www.w3.org/2000/svg" width="46" height="46" viewBox="0 0 46 46">
  <g id="Group_40178" data-name="Group 40178" transform="translate(-117 -722)">
    <g id="Group_40169" data-name="Group 40169" transform="translate(117 722)">
      <path id="Path_32784" data-name="Path 32784" d="M23,0A23,23,0,1,1,0,23,23,23,0,0,1,23,0Z" transform="translate(0 0)" fill="#079628"/>
    </g>
    <path id="gallery" d="M14.732,0H3.157A3.161,3.161,0,0,0,0,3.157V14.732a3.161,3.161,0,0,0,3.157,3.157H14.732a3.161,3.161,0,0,0,3.157-3.157V3.157A3.161,3.161,0,0,0,14.732,0ZM3.157,1.118H14.732a2.042,2.042,0,0,1,2.039,2.039v7.9L12.151,6.933a.559.559,0,0,0-.69-.043L7.63,9.534,5.773,7.878a.559.559,0,0,0-.735-.008l-3.92,3.346V3.157A2.042,2.042,0,0,1,3.157,1.118ZM14.732,16.771H3.157a2.042,2.042,0,0,1-2.039-2.039V12.686l4.275-3.65L9.4,12.61a.559.559,0,1,0,.744-.834L8.489,10.3l3.245-2.24,5.036,4.5v2.171a2.042,2.042,0,0,1-2.039,2.039Z" transform="translate(131.694 736.694)" fill="#fff" stroke="#fff" stroke-width="0.3"/>
  </g>
</svg>
