<svg xmlns="http://www.w3.org/2000/svg" width="15" height="14.995" viewBox="0 0 15 14.995">
  <g id="r" transform="translate(-2.323 -2.35)">
    <g id="Group_40106" data-name="Group 40106" transform="translate(2.323 2.35)">
      <path id="Path_32397" data-name="Path 32397" d="M16.686,12.313l-1.165-1.165a2.29,2.29,0,0,0-3.153,0,1.088,1.088,0,0,1-1.506,0l-2.33-2.33a1.073,1.073,0,0,1,0-1.506,2.231,2.231,0,0,0,0-3.153L7.368,2.994A2.215,2.215,0,0,0,5.761,2.35a2.423,2.423,0,0,0-1.646.738l-.474.474a4.444,4.444,0,0,0-.38,5.886,41.978,41.978,0,0,0,3.277,3.688,43.166,43.166,0,0,0,3.619,3.23A4.471,4.471,0,0,0,16.1,16.04l.567-.567a2.231,2.231,0,0,0,0-3.153Zm-.823,2.33-.567.567a3.313,3.313,0,0,1-4.4.241,42.047,42.047,0,0,1-3.525-3.137A39.674,39.674,0,0,1,4.184,8.725a3.28,3.28,0,0,1,.287-4.341l.474-.474a1.268,1.268,0,0,1,.854-.4h.031a1.017,1.017,0,0,1,.722.3L7.717,4.982a1.073,1.073,0,0,1,0,1.506,2.231,2.231,0,0,0,0,3.153l2.33,2.33a2.231,2.231,0,0,0,3.153,0,1.088,1.088,0,0,1,1.506,0l1.165,1.165a1.073,1.073,0,0,1,0,1.506Z" transform="translate(-2.323 -2.35)" fill="#079628"/>
      <path id="Path_32398" data-name="Path 32398" d="M13.832,7.415A1.75,1.75,0,0,1,15.58,9.162a.582.582,0,0,0,1.165,0A2.913,2.913,0,0,0,13.832,6.25a.582.582,0,0,0,0,1.165Z" transform="translate(-4.765 -3.221)" fill="#079628"/>
      <path id="Path_32399" data-name="Path 32399" d="M13.832,4.415a4.081,4.081,0,0,1,4.077,4.077.582.582,0,1,0,1.165,0A5.249,5.249,0,0,0,13.832,3.25a.582.582,0,0,0,0,1.165Z" transform="translate(-4.765 -2.551)" fill="#079628"/>
    </g>
  </g>
</svg>
