<svg xmlns="http://www.w3.org/2000/svg" width="34" height="34" viewBox="0 0 34 34">
  <g id="Group_40080" data-name="Group 40080" transform="translate(-24 -219)">
    <g id="Rectangle_1473" data-name="Rectangle 1473" transform="translate(24 219)" fill="#f7f7f7" stroke="#e7e7e7" stroke-width="1">
      <rect width="34" height="34" rx="6" stroke="none"/>
      <rect x="0.5" y="0.5" width="33" height="33" rx="5.5" fill="none"/>
    </g>
    <g id="t" transform="translate(29 223)">
      <path id="Path_32387" data-name="Path 32387" d="M21.75,15a3.745,3.745,0,0,0-3-3.67V11a6.75,6.75,0,0,0-13.5,0v.33A3.748,3.748,0,0,0,6,18.75H7A2.748,2.748,0,0,0,9.75,16V14A2.748,2.748,0,0,0,7,11.25H6.75V11a5.25,5.25,0,0,1,10.5,0v.25H17A2.748,2.748,0,0,0,14.25,14v2A2.748,2.748,0,0,0,17,18.75h.25V19A1.25,1.25,0,0,1,16,20.25H14a.75.75,0,0,0,0,1.5h2A2.748,2.748,0,0,0,18.75,19v-.33A3.753,3.753,0,0,0,21.75,15ZM8.25,14v2A1.25,1.25,0,0,1,7,17.25H6a2.25,2.25,0,0,1,0-4.5H7A1.25,1.25,0,0,1,8.25,14ZM18,17.25H17A1.25,1.25,0,0,1,15.75,16V14A1.25,1.25,0,0,1,17,12.75h1a2.25,2.25,0,0,1,0,4.5Z" fill="#171e14"/>
    </g>
  </g>
</svg>
