<svg id="t" xmlns="http://www.w3.org/2000/svg" width="15.003" height="13.802" viewBox="0 0 15.003 13.802">
  <path id="Path_32396" data-name="Path 32396" d="M17.263,8.616a1.374,1.374,0,0,0-.015-.177.6.6,0,0,0-.015-.262,3.67,3.67,0,0,0-1.847-2.756l-3.849-2.14a3.639,3.639,0,0,0-3.549,0L4.138,5.422A3.637,3.637,0,0,0,2.291,8.178a.506.506,0,0,0-.015.262c0,.062-.015.115-.015.177v4.349A3.655,3.655,0,0,0,3.3,15.514h0v.015a3.69,3.69,0,0,0,2.61,1.093h7.7a3.627,3.627,0,0,0,2.6-1.093h.008v-.015a3.629,3.629,0,0,0,1.047-2.548V8.616Zm-1.155,4.349a2.5,2.5,0,0,1-.416,1.378L12.9,12.026l3.21-2.494v3.441ZM4.692,6.43,8.541,4.29a2.5,2.5,0,0,1,2.432,0l3.849,2.14a2.512,2.512,0,0,1,1.232,1.678l-4.757,3.7a2.507,2.507,0,0,1-3.071,0l-4.757-3.7A2.488,2.488,0,0,1,4.7,6.43Zm-.87,7.906a2.484,2.484,0,0,1-.416-1.378V9.517l3.21,2.494L3.823,14.328ZM5.909,15.46a2.5,2.5,0,0,1-1.232-.339l2.871-2.386a3.619,3.619,0,0,0,4.4,0l2.871,2.386a2.46,2.46,0,0,1-1.232.339H5.909Z" transform="translate(-2.26 -2.82)" fill="#079628"/>
</svg>
