<svg xmlns="http://www.w3.org/2000/svg" width="34" height="34" viewBox="0 0 34 34">
  <g id="Group_40083" data-name="Group 40083" transform="translate(-24 -219)">
    <g id="Rectangle_1473" data-name="Rectangle 1473" transform="translate(24 219)" fill="#f7f7f7" stroke="#e7e7e7" stroke-width="1">
      <rect width="34" height="34" rx="6" stroke="none"/>
      <rect x="0.5" y="0.5" width="33" height="33" rx="5.5" fill="none"/>
    </g>
    <g id="earth" transform="translate(29.254 224.283)">
      <path id="Path_32383" data-name="Path 32383" d="M11.727,2a9.728,9.728,0,0,0-9.679,8.8A.611.611,0,0,0,2,11.033a.987.987,0,0,0,0,.139v.556a9.728,9.728,0,0,0,15.718,7.644.7.7,0,1,0-.862-1.1,8.137,8.137,0,0,1-3.092,1.515.75.75,0,0,0-.153-.243.493.493,0,0,1-.063-.632l.459-.695a1.911,1.911,0,0,0,.118-1.9l-.5-1a1.9,1.9,0,0,0-2.668-.778L8.788,15.9a.57.57,0,0,1-.181.069l-3.669.625a8.338,8.338,0,0,1-1.55-4.864H5.355a2.668,2.668,0,0,0,1.883-.778l.931-.931a1.237,1.237,0,0,1,.9-.375A2.64,2.64,0,0,0,11.609,7.76a.695.695,0,1,0-1.327-.4,1.265,1.265,0,0,1-1.216.9,2.668,2.668,0,0,0-1.883.778l-.931.931a1.237,1.237,0,0,1-.9.375H3.514A8.338,8.338,0,0,1,9.073,3.827l.98,1.96a.7.7,0,0,0,.632.382.646.646,0,0,0,.347-.076.7.7,0,0,0,.306-.931L10.5,3.494a8.179,8.179,0,0,1,6.685,1.98L16.014,7.4a1.807,1.807,0,0,0,.98,2.647.431.431,0,0,1,.292.4v.16A1.814,1.814,0,0,0,19.1,12.423h.966a8.22,8.22,0,0,1-1.251,3.752A.7.7,0,1,0,20,16.919,9.728,9.728,0,0,0,11.727,2ZM8.836,17.287a1.932,1.932,0,0,0,.695-.243l2.168-1.3a.473.473,0,0,1,.4-.056.507.507,0,0,1,.313.257l.5,1a.507.507,0,0,1-.035.507l-.459.695a1.911,1.911,0,0,0-.125,1.876h-.535a8.3,8.3,0,0,1-5.712-2.279Zm9.839-6.678v-.16a1.8,1.8,0,0,0-1.237-1.716.452.452,0,0,1-.264-.257.41.41,0,0,1,.035-.361l.98-1.64a8.269,8.269,0,0,1,1.876,4.558H19.1a.424.424,0,0,1-.424-.424Z" transform="translate(0 0)" fill="#171e14"/>
    </g>
  </g>
</svg>
