<svg xmlns="http://www.w3.org/2000/svg" width="18" height="18" viewBox="0 0 18 18">
  <g id="Group_12087" data-name="Group 12087" transform="translate(-650.672 -97)">
    <g id="Layer_2" data-name="Layer 2" transform="translate(650.672 97)">
      <path id="Path_22047" data-name="Path 22047" d="M22.177,19.2A8.958,8.958,0,0,0,23.5,14.5h0a8.958,8.958,0,0,0-1.323-4.7l0-.008a9,9,0,0,0-15.343,0l0,.008a9,9,0,0,0,0,9.4l.005.008a9,9,0,0,0,15.343,0ZM15.65,21.958a2.187,2.187,0,0,1-.584.4,1.319,1.319,0,0,1-1.132,0,2.755,2.755,0,0,1-1.021-.9,8.044,8.044,0,0,1-1.162-2.522q1.373-.085,2.749-.086t2.75.086a10.152,10.152,0,0,1-.493,1.358,5.219,5.219,0,0,1-1.106,1.659ZM6.529,15.006h3.63a17.859,17.859,0,0,0,.328,3.016q-1.489.131-2.969.36a7.934,7.934,0,0,1-.989-3.376Zm.989-4.387q1.48.229,2.97.36a17.828,17.828,0,0,0-.329,3.016H6.529a7.934,7.934,0,0,1,.989-3.376ZM13.35,7.042a2.187,2.187,0,0,1,.584-.4,1.319,1.319,0,0,1,1.132,0,2.755,2.755,0,0,1,1.021.9,8.044,8.044,0,0,1,1.162,2.522q-1.373.084-2.749.086t-2.75-.086A10.15,10.15,0,0,1,12.243,8.7,5.218,5.218,0,0,1,13.35,7.042Zm9.122,6.952h-3.63a17.86,17.86,0,0,0-.328-3.016q1.489-.131,2.969-.36A7.934,7.934,0,0,1,22.471,13.994ZM11.5,17.943a16.725,16.725,0,0,1-.334-2.938H17.83a16.722,16.722,0,0,1-.333,2.938q-1.5-.1-3-.1T11.5,17.943ZM17.5,11.057a16.726,16.726,0,0,1,.334,2.938H11.17a16.722,16.722,0,0,1,.333-2.938q1.5.1,3,.1T17.5,11.057Zm1.345,3.949h3.63a7.934,7.934,0,0,1-.989,3.376q-1.48-.229-2.97-.36a17.827,17.827,0,0,0,.329-3.016Zm2.035-5.318q-1.294.187-2.6.3a11.532,11.532,0,0,0-.6-1.7,7.176,7.176,0,0,0-.837-1.425A7.987,7.987,0,0,1,20.876,9.687ZM8.851,8.851A7.986,7.986,0,0,1,12.159,6.86c-.019.025-.038.048-.057.073a9.231,9.231,0,0,0-1.38,3.05q-1.3-.11-2.6-.3a8.055,8.055,0,0,1,.727-.836ZM8.124,19.313q1.294-.187,2.6-.3a11.532,11.532,0,0,0,.6,1.7,7.177,7.177,0,0,0,.837,1.425,7.987,7.987,0,0,1-4.035-2.827Zm12.025.836a7.986,7.986,0,0,1-3.308,1.991c.019-.025.038-.048.057-.073a9.231,9.231,0,0,0,1.38-3.05q1.3.11,2.6.3a8.054,8.054,0,0,1-.727.836Z" transform="translate(-5.5 -5.5)" fill="#131314"/>
    </g>
  </g>
</svg>
