<svg xmlns="http://www.w3.org/2000/svg" width="19" height="12.072" viewBox="0 0 19 12.072">
  <g id="Group_40101" data-name="Group 40101" transform="translate(-222.446 -18.506)">
    <path id="Path_31320" data-name="Path 31320" d="M8,96.011a.671.671,0,0,0,.671.671h9.213l-4.23,4.226a.669.669,0,0,0,.947.943l5.365-5.368a.693.693,0,0,0,0-.947L14.6,90.171a.67.67,0,0,0-.947.947l4.226,4.226H8.667A.661.661,0,0,0,8,96.011Z" transform="translate(221.293 -71.469)" fill="#fff"/>
    <rect id="Rectangle_1474" data-name="Rectangle 1474" width="2.653" height="1.724" rx="0.862" transform="translate(225.405 23.679)" fill="#fff"/>
    <rect id="Rectangle_1475" data-name="Rectangle 1475" width="1.724" height="1.724" rx="0.862" transform="translate(222.446 23.679)" fill="#fff"/>
  </g>
</svg>
