<svg xmlns="http://www.w3.org/2000/svg" width="34" height="34" viewBox="0 0 34 34">
  <g id="Group_40072" data-name="Group 40072" transform="translate(-24 -219)">
    <g id="Rectangle_1473" data-name="Rectangle 1473" transform="translate(24 219)" fill="#f7f7f7" stroke="#e7e7e7" stroke-width="1">
      <rect width="34" height="34" rx="6" stroke="none"/>
      <rect x="0.5" y="0.5" width="33" height="33" rx="5.5" fill="none"/>
    </g>
    <g id="c" transform="translate(28.99 223.468)">
      <g id="Group_40071" data-name="Group 40071">
        <path id="Path_32379" data-name="Path 32379" d="M19.92,8.21l-5-3.89a4.73,4.73,0,0,0-5.83,0l-5,3.89a4.7,4.7,0,0,0-1.83,3.75V17a4.754,4.754,0,0,0,4.75,4.75h10A4.754,4.754,0,0,0,21.76,17V11.96a4.733,4.733,0,0,0-1.83-3.75ZM20.25,17A3.256,3.256,0,0,1,17,20.25H7A3.256,3.256,0,0,1,3.75,17V11.96A3.27,3.27,0,0,1,5,9.39L10,5.5a3.244,3.244,0,0,1,4,0l5,3.89a3.226,3.226,0,0,1,1.25,2.57Z" fill="#171e14"/>
        <path id="Path_32380" data-name="Path 32380" d="M12,14.75A3.75,3.75,0,1,0,8.25,11,3.751,3.751,0,0,0,12,14.75Zm0-6A2.25,2.25,0,1,1,9.75,11,2.253,2.253,0,0,1,12,8.75Z" fill="#171e14"/>
        <path id="Path_32381" data-name="Path 32381" d="M14.84,15.25H9.16A3.745,3.745,0,0,0,5.6,17.81a.749.749,0,0,0,1.42.48,2.246,2.246,0,0,1,2.13-1.54h5.68a2.237,2.237,0,0,1,2.13,1.54.76.76,0,0,0,.71.51.672.672,0,0,0,.24-.04.745.745,0,0,0,.47-.95,3.745,3.745,0,0,0-3.56-2.56Z" fill="#171e14"/>
      </g>
    </g>
  </g>
</svg>
