<svg xmlns="http://www.w3.org/2000/svg" width="34" height="34" viewBox="0 0 34 34">
  <g id="Group_40072" data-name="Group 40072" transform="translate(-24 -219.076)">
    <g id="Rectangle_1473" data-name="Rectangle 1473" transform="translate(24 219.076)" fill="#f7f7f7" stroke="#e7e7e7" stroke-width="1">
      <rect width="34" height="34" rx="6" stroke="none"/>
      <rect x="0.5" y="0.5" width="33" height="33" rx="5.5" fill="none"/>
    </g>
    <g id="q" transform="translate(27.493 222.826)">
      <g id="Group_40126" data-name="Group 40126" transform="translate(3.507 4.25)">
        <path id="Path_32402" data-name="Path 32402" d="M12.7,15.144A5.447,5.447,0,1,0,7.25,9.7,5.452,5.452,0,0,0,12.7,15.144Zm0-9.174A3.727,3.727,0,1,1,8.97,9.7,3.734,3.734,0,0,1,12.7,5.97Z" transform="translate(-2.958 -4.25)" fill="#171e14"/>
        <path id="Path_32403" data-name="Path 32403" d="M17.894,8.256a2.579,2.579,0,0,1-1.284,4.816.86.86,0,1,0,0,1.72,4.3,4.3,0,0,0,2.156-8.027.872.872,0,0,0-1.181.31.856.856,0,0,0,.31,1.17Z" transform="translate(-1.711 -3.898)" fill="#171e14"/>
        <path id="Path_32404" data-name="Path 32404" d="M8.05,14.791a.86.86,0,1,0,0-1.72A2.579,2.579,0,0,1,6.766,8.254a.858.858,0,1,0-.872-1.479A4.3,4.3,0,0,0,8.05,14.8Z" transform="translate(-3.472 -3.897)" fill="#171e14"/>
        <path id="Path_32405" data-name="Path 32405" d="M12.657,15.25a5.273,5.273,0,0,0-5.114,3.991l-.023.1.837.206.86.1a3.547,3.547,0,0,1,6.88,0,.858.858,0,0,0,.837.654.635.635,0,0,0,.206-.023.867.867,0,0,0,.631-1.044,5.253,5.253,0,0,0-5.114-3.991Z" transform="translate(-2.919 -2.636)" fill="#171e14"/>
        <path id="Path_32406" data-name="Path 32406" d="M8.373,16.11a.866.866,0,0,0-.86-.86,3.789,3.789,0,0,0-3.681,2.878l-.3,1.216a.858.858,0,0,0,.631,1.044.635.635,0,0,0,.206.023.868.868,0,0,0,.837-.654l.3-1.216A2.064,2.064,0,0,1,7.524,16.97a.866.866,0,0,0,.86-.86Z" transform="translate(-3.507 -2.636)" fill="#171e14"/>
        <path id="Path_32407" data-name="Path 32407" d="M21.1,19.344l-.3-1.216A3.789,3.789,0,0,0,17.12,15.25a.86.86,0,0,0,0,1.72,2.074,2.074,0,0,1,2.018,1.571l.3,1.216a.858.858,0,0,0,.837.654.635.635,0,0,0,.206-.023.867.867,0,0,0,.631-1.044Z" transform="translate(-1.636 -2.636)" fill="#171e14"/>
      </g>
    </g>
  </g>
</svg>
