<svg xmlns="http://www.w3.org/2000/svg" xmlns:xlink="http://www.w3.org/1999/xlink" width="150" height="150" viewBox="0 0 150 150">
  <defs>
    <filter id="Rectangle_1458" x="-25.5" y="-16.5" width="201" height="201" filterUnits="userSpaceOnUse">
      <feOffset dy="9" input="SourceAlpha"/>
      <feGaussianBlur stdDeviation="8.5" result="blur"/>
      <feFlood flood-color="#e4f3e1"/>
      <feComposite operator="in" in2="blur"/>
      <feComposite in="SourceGraphic"/>
    </filter>
    <clipPath id="clip-path">
      <g transform="matrix(1, 0, 0, 1, 0, 0)" filter="url(#Rectangle_1458)">
        <rect id="Rectangle_1458-2" data-name="Rectangle 1458" width="150" height="150" rx="75" transform="translate(0.1 0.1)" fill="#fff" stroke="#d9d9d9" stroke-width="1"/>
      </g>
    </clipPath>
    <clipPath id="clip-path-2">
      <rect id="Rectangle_1457" data-name="Rectangle 1457" width="113.252" height="133.427" fill="none"/>
    </clipPath>
  </defs>
  <g id="Group_40154" data-name="Group 40154" transform="translate(-0.101 -0.101)">
    <g id="Rectangle_1368" data-name="Rectangle 1368" transform="translate(0.102 0.102)" fill="#fff" stroke="#e7e7e7" stroke-width="1">
      <rect width="150" height="150" rx="75" stroke="none"/>
      <rect x="0.5" y="0.5" width="149" height="149" rx="74.5" fill="none"/>
    </g>
    <g id="Mask_Group_4" data-name="Mask Group 4" clip-path="url(#clip-path)">
      <g id="Group_40009" data-name="Group 40009" transform="translate(18.773 24.674)">
        <g id="Group_40008" data-name="Group 40008" clip-path="url(#clip-path-2)">
          <path id="Path_31501" data-name="Path 31501" d="M35.251,22.559a8.453,8.453,0,0,1,.407-6.438A7.81,7.81,0,0,1,40.47,12.1a5.923,5.923,0,0,1,5.977-5.553,4.7,4.7,0,0,1,2.79-3.423,4.13,4.13,0,0,1,4.115.68A3.939,3.939,0,0,1,56.013.756a3.785,3.785,0,0,1,3.739,1.417c.734-1.648,2.37-2.037,4.1-2.162a4.922,4.922,0,0,1,4.439,2.332A4.056,4.056,0,0,1,73.066,1.2a4.729,4.729,0,0,1,2.82,4.452c1.091-.865,2.834-.6,4.055.053A3.966,3.966,0,0,1,81.954,9.2,4.707,4.707,0,0,1,85.7,11.458a5.346,5.346,0,0,1,.562,4.569c1.529.2,2.649,2.022,3.155,3.547a4.623,4.623,0,0,1-.962,4.491c1.255.832,1.679,2.8,1.906,4.333A5.738,5.738,0,0,1,89.2,32.755c1.008.974,1.151,3.056.966,4.48a4.563,4.563,0,0,1-2.285,3.388c.935,1,.438,3.164-.153,4.423a3.319,3.319,0,0,1-3.312,1.882c.394,1.328-.618,3.333-1.685,4.159a3.182,3.182,0,0,1-3.732.07c-.336,3.252-4.235,6.825-7.336,6.447A5.77,5.77,0,0,1,67.6,60.247,4.621,4.621,0,0,1,63.7,58.4a5.318,5.318,0,0,1-4.048,3.036,3.825,3.825,0,0,1-3.464-2.446c-2.484,1.48-6.773-.19-7.963-2.911-1.09,1.113-3.541,1.7-4.835.859a3.8,3.8,0,0,1-1.453-4.173,4.622,4.622,0,0,1-3.565-1.473,4.379,4.379,0,0,1-1.021-3.54c-1.154-.152-2.267-1.536-2.682-2.676a3.59,3.59,0,0,1,.58-3.431c-1.027-.788-1.488-2.559-1.558-3.89a4.709,4.709,0,0,1,1.393-3.584c-1.836-1.738-2.114-5.436-.291-7.188a2.113,2.113,0,0,1-.982-1.971,3.427,3.427,0,0,1,1.444-2.455" transform="translate(-5.321 0)" fill="#2e2e2e"/>
          <path id="Path_31502" data-name="Path 31502" d="M83.773,43.146c-2.081,3.344-1.88,7.3.449,8.844s5.905.082,7.986-3.261,1.881-7.3-.448-8.844-5.905-.082-7.987,3.261" transform="translate(-13.056 -6.227)" fill="#f5f5ff"/>
          <path id="Path_31503" data-name="Path 31503" d="M83.773,43.146c-2.081,3.344-1.88,7.3.449,8.844s5.905.082,7.986-3.261,1.881-7.3-.448-8.844S85.855,39.8,83.773,43.146Z" transform="translate(-13.056 -6.227)" fill="none" stroke="#2e2e2e" stroke-linecap="round" stroke-linejoin="round" stroke-width="0.535"/>
          <path id="Path_31504" data-name="Path 31504" d="M91.453,41.908a3.1,3.1,0,0,1,.811,5.314" transform="translate(-14.502 -6.646)" fill="none" stroke="#2e2e2e" stroke-linecap="round" stroke-linejoin="round" stroke-width="0.535"/>
          <path id="Path_31505" data-name="Path 31505" d="M48.792,43.146c2.08,3.344,1.88,7.3-.45,8.844s-5.905.082-7.986-3.261-1.881-7.3.448-8.844,5.905-.082,7.988,3.261" transform="translate(-6.171 -6.227)" fill="#f5f5ff"/>
          <path id="Path_31506" data-name="Path 31506" d="M48.792,43.146c2.08,3.344,1.88,7.3-.45,8.844s-5.905.082-7.986-3.261-1.881-7.3.448-8.844S46.709,39.8,48.792,43.146Z" transform="translate(-6.171 -6.227)" fill="none" stroke="#2e2e2e" stroke-linecap="round" stroke-linejoin="round" stroke-width="0.535"/>
          <path id="Path_31507" data-name="Path 31507" d="M42.872,41.908a3.1,3.1,0,0,0-.811,5.314" transform="translate(-6.486 -6.646)" fill="none" stroke="#2e2e2e" stroke-linecap="round" stroke-linejoin="round" stroke-width="0.535"/>
          <path id="Path_31508" data-name="Path 31508" d="M75.454,84.947a10,10,0,1,1-19.986.338c0-.113,0-.225.01-.338l1.11-14.9.282-3.771.555-7.4H73.5l.884,11.7.63,8.511Z" transform="translate(-8.796 -9.336)" fill="#f5f5ff"/>
          <path id="Path_31509" data-name="Path 31509" d="M75.454,84.947a10,10,0,1,1-19.986.338c0-.113,0-.225.01-.338l1.11-14.9.282-3.771.555-7.4H73.5l.884,11.7.63,8.511Z" transform="translate(-8.796 -9.336)" fill="none" stroke="#2e2e2e" stroke-linecap="round" stroke-linejoin="round" stroke-width="0.559"/>
          <path id="Path_31510" data-name="Path 31510" d="M75.277,79.088C70,79.464,64.188,76.84,60.2,71.742a20.027,20.027,0,0,1-3.066-5.464l.555-7.4H73.762l.884,11.7Z" transform="translate(-9.06 -9.336)" fill="#2e2e2e"/>
          <path id="Path_31511" data-name="Path 31511" d="M81.126,48.825a25.949,25.949,0,0,1-2.619,4.91,29.849,29.849,0,0,1-7.648,7.93,12.147,12.147,0,0,1-10.5,1.52,18.47,18.47,0,0,1-6.991-4.949,26.627,26.627,0,0,1-6.088-8.815,26.765,26.765,0,0,1-1.54-8.5,93.618,93.618,0,0,1,.636-12.17,18.229,18.229,0,0,1,8.726-13.73A17.744,17.744,0,0,1,81.319,25.977c.959,3.786.631,7.717.691,11.578.015,1.083.065,2.177.09,3.27a20.276,20.276,0,0,1-.974,8" transform="translate(-7.249 -1.999)" fill="#f5f5ff"/>
          <path id="Path_31512" data-name="Path 31512" d="M81.126,48.825a25.949,25.949,0,0,1-2.619,4.91,29.849,29.849,0,0,1-7.648,7.93,12.147,12.147,0,0,1-10.5,1.52,18.47,18.47,0,0,1-6.991-4.949,26.627,26.627,0,0,1-6.088-8.815,26.765,26.765,0,0,1-1.54-8.5,93.618,93.618,0,0,1,.636-12.17,18.229,18.229,0,0,1,8.726-13.73A17.744,17.744,0,0,1,81.319,25.977c.959,3.786.631,7.717.691,11.578.015,1.083.065,2.177.09,3.27A20.276,20.276,0,0,1,81.126,48.825Z" transform="translate(-7.249 -1.999)" fill="none" stroke="#2e2e2e" stroke-linecap="round" stroke-linejoin="round" stroke-width="0.535"/>
          <path id="Path_31513" data-name="Path 31513" d="M82.153,40.815v.135l-.1-.09a6.16,6.16,0,0,1-2.1-4.313L79.3,24.078c-.657-.262-1.287-.532-1.927-.829a30.519,30.519,0,0,1-2.746-1.485,22.229,22.229,0,0,1-4.762-3.737,25.405,25.405,0,0,1-5.888.657,24.385,24.385,0,0,1-6.744-.891,21.3,21.3,0,0,1-4.456,3.664,28.06,28.06,0,0,1-3.25,1.791c-.252.117-.531.243-.864.387L48,36.547a6.132,6.132,0,0,1-2.224,4.412l-.1.082-.008-.126a89.127,89.127,0,0,1,.558-11.353l.081-.82a18.014,18.014,0,0,1,4.16-9.849,17.822,17.822,0,0,1,4.6-3.934,18.133,18.133,0,0,1,15.9-1.08,17.682,17.682,0,0,1,6.518,4.745,17.86,17.86,0,0,1,3.881,7.328,34.882,34.882,0,0,1,.693,8.9c-.009.882-.009,1.8,0,2.692.009.621.027,1.26.054,1.881.009.459.027.919.036,1.387" transform="translate(-7.237 -1.988)" fill="#2e2e2e"/>
          <path id="Path_31514" data-name="Path 31514" d="M78.4,18.623a17.694,17.694,0,0,0-6.519-4.745,18.136,18.136,0,0,0-15.9,1.08,17.858,17.858,0,0,0-4.6,3.934,8.765,8.765,0,0,0,1.2,1.547,4.3,4.3,0,0,0,5.1,4.082,3.319,3.319,0,0,0,2.435,2.162,2.673,2.673,0,0,0,2.617-1.244A3.367,3.367,0,0,0,65.518,27a2.963,2.963,0,0,0,2.422-1.748,2.994,2.994,0,0,0,2.785,1.78,3.166,3.166,0,0,0,2.566-2.254,2.877,2.877,0,0,0,3.652-1.8,2.886,2.886,0,0,0-.338-2.1A9.051,9.051,0,0,0,78.4,18.623" transform="translate(-8.148 -1.988)" fill="#2e2e2e"/>
          <path id="Path_31515" data-name="Path 31515" d="M110.52,133.608c-7.671,3.462-14.675,4.529-15.643,2.383s4.466-6.69,12.138-10.152,14.674-4.529,15.643-2.384-4.466,6.691-12.138,10.153" transform="translate(-15.028 -19.402)" fill="#2e2e2e"/>
          <path id="Path_31516" data-name="Path 31516" d="M106.6,148.42l-3.591-8.724-2.875-6.99-2.424-5.9-5.325-12.941c-2.8-6.809-.048-14.352,6-16.424a9.683,9.683,0,0,1,3.209-.517c.1,0,.2,0,.3.012,4.689.169,9.219,3.65,11.035,8.967l4.311,12.6,1.931,5.65,8.339,24.416" transform="translate(-14.475 -15.37)" fill="#f5f5ff"/>
          <path id="Path_31517" data-name="Path 31517" d="M106.6,148.42l-3.591-8.724-2.875-6.99-2.424-5.9-5.325-12.941c-2.8-6.809-.048-14.352,6-16.424a9.683,9.683,0,0,1,3.209-.517c.1,0,.2,0,.3.012,4.689.169,9.219,3.65,11.035,8.967l4.311,12.6,1.931,5.65,8.339,24.416" transform="translate(-14.475 -15.37)" fill="none" stroke="#2e2e2e" stroke-linecap="round" stroke-linejoin="round" stroke-width="0.535"/>
          <path id="Path_31518" data-name="Path 31518" d="M120.682,118.27c-1.419-1.791-8.138-.663-15.474,2.639-7.673,3.465-13.114,8.01-12.138,10.161a.833.833,0,0,0,.082.128l-.082.035L84.6,111.364c-3.325-7.8.268-16.695,7.824-19.333a13.062,13.062,0,0,1,4.336-.745,14.452,14.452,0,0,1,12.684,8.046Z" transform="translate(-13.218 -14.476)" fill="#fff"/>
          <path id="Path_31519" data-name="Path 31519" d="M120.682,118.27c-1.419-1.791-8.138-.663-15.474,2.639-7.673,3.465-13.114,8.01-12.138,10.161a.833.833,0,0,0,.082.128l-.082.035L84.6,111.364c-3.325-7.8.268-16.695,7.824-19.333a13.062,13.062,0,0,1,4.336-.745,14.452,14.452,0,0,1,12.684,8.046Z" transform="translate(-13.218 -14.476)" fill="none" stroke="#2e2e2e" stroke-linecap="round" stroke-linejoin="round" stroke-width="0.535"/>
          <path id="Path_31520" data-name="Path 31520" d="M19.022,133.766c7.671,3.462,14.675,4.529,15.643,2.383S30.2,129.459,22.527,126s-14.674-4.529-15.643-2.384,4.466,6.691,12.138,10.153" transform="translate(-1.074 -19.427)" fill="#2e2e2e"/>
          <path id="Path_31521" data-name="Path 31521" d="M.268,148.608l8.516-24.345,1.972-5.644,4.4-12.568c1.891-5.411,6.6-8.9,11.389-8.9h.064a9.752,9.752,0,0,1,3.141.542c6.033,2.115,8.742,9.677,5.888,16.467l-5.42,12.9v.009l-2.467,5.87L25.125,139.2l-3.953,9.409" transform="translate(-0.042 -15.406)" fill="#f5f5ff"/>
          <path id="Path_31522" data-name="Path 31522" d="M.268,148.608l8.516-24.345,1.972-5.644,4.4-12.568c1.891-5.411,6.6-8.9,11.389-8.9h.064a9.752,9.752,0,0,1,3.141.542c6.033,2.115,8.742,9.677,5.888,16.467l-5.42,12.9v.009l-2.467,5.87L25.125,139.2l-3.953,9.409" transform="translate(-0.042 -15.406)" fill="none" stroke="#2e2e2e" stroke-linecap="round" stroke-linejoin="round" stroke-width="0.535"/>
          <path id="Path_31523" data-name="Path 31523" d="M7.1,118.428c1.419-1.791,8.138-.663,15.474,2.639,7.673,3.465,13.114,8.01,12.138,10.161a.833.833,0,0,1-.082.128l.082.035,8.475-19.869c3.325-7.8-.268-16.695-7.824-19.333a13.062,13.062,0,0,0-4.336-.745A14.452,14.452,0,0,0,18.344,99.49Z" transform="translate(-1.126 -14.501)" fill="#fff"/>
          <path id="Path_31524" data-name="Path 31524" d="M7.1,118.428c1.419-1.791,8.138-.663,15.474,2.639,7.673,3.465,13.114,8.01,12.138,10.161a.833.833,0,0,1-.082.128l.082.035,8.475-19.869c3.325-7.8-.268-16.695-7.824-19.333a13.062,13.062,0,0,0-4.336-.745A14.452,14.452,0,0,0,18.344,99.49Z" transform="translate(-1.126 -14.501)" fill="none" stroke="#2e2e2e" stroke-linecap="round" stroke-linejoin="round" stroke-width="0.535"/>
          <path id="Path_31525" data-name="Path 31525" d="M93.349,146.351h-64.2l.333-9.409.234-6.788.3-8.338.954-26.92.146-4.513L45.218,85.8l2.322-.837,1.153-.423L51.7,82.917H70.346l3.376,1.555,1.143.414,2.323.837,14.325,4.661.107,4.522.513,15.162.387,11.587.279,8.382v.045l.252,7.572Z" transform="translate(-4.622 -13.149)" fill="#fff"/>
          <path id="Path_31526" data-name="Path 31526" d="M93.349,146.351h-64.2l.333-9.409.234-6.788.3-8.338.954-26.92.146-4.513L45.218,85.8l2.322-.837,1.153-.423L51.7,82.917H70.346l3.376,1.555,1.143.414,2.323.837,14.325,4.661.107,4.522.513,15.162.387,11.587.279,8.382v.045l.252,7.572Z" transform="translate(-4.622 -13.149)" fill="none" stroke="#2e2e2e" stroke-linecap="round" stroke-linejoin="round" stroke-width="0.535"/>
          <path id="Path_31527" data-name="Path 31527" d="M74.487,82.378l2.343,1.762,1.1.4a13.28,13.28,0,0,1-26.334.069L52.71,84.2l2.662-2.141" transform="translate(-8.181 -13.012)" fill="#f5f5ff"/>
          <path id="Path_31528" data-name="Path 31528" d="M74.487,82.378l2.343,1.762,1.1.4a13.28,13.28,0,0,1-26.334.069L52.71,84.2l2.662-2.141" transform="translate(-8.181 -13.012)" fill="none" stroke="#2e2e2e" stroke-linecap="round" stroke-linejoin="round" stroke-width="0.535"/>
        </g>
      </g>
    </g>
  </g>
</svg>
