<svg xmlns="http://www.w3.org/2000/svg" xmlns:xlink="http://www.w3.org/1999/xlink" width="19.5" height="19.5" viewBox="0 0 19.5 19.5">
  <defs>
    <clipPath id="clip-path">
      <rect id="Rectangle_1480" data-name="Rectangle 1480" width="19.5" height="19.5" fill="#079628"/>
    </clipPath>
  </defs>
  <g id="Group_40114" data-name="Group 40114" transform="translate(0 1)">
    <g id="Group_40113" data-name="Group 40113" transform="translate(0 -1)" clip-path="url(#clip-path)">
      <path id="Path_32400" data-name="Path 32400" d="M18.563,5.581a9.749,9.749,0,0,0-17.076-1A9.75,9.75,0,0,0,9.741,19.5h.118a9.8,9.8,0,0,0,5.113-1.515.952.952,0,1,0-1.02-1.607,7.841,7.841,0,0,1-8.361.03,7.847,7.847,0,1,1,11.955-5.776.952.952,0,0,0,1.892.209A9.788,9.788,0,0,0,18.563,5.581Z" transform="translate(0 0)" fill="#079628"/>
      <path id="Path_32401" data-name="Path 32401" d="M138.633,162.267l-4.592,4.592-1.7-1.7a.953.953,0,1,0-1.348,1.348l2.376,2.376a.956.956,0,0,0,1.348,0l5.262-5.266a.952.952,0,0,0-1.344-1.348Z" transform="translate(-125.735 -155.822)" fill="#079628"/>
    </g>
  </g>
</svg>
