<svg xmlns="http://www.w3.org/2000/svg" width="18.897" height="19.711" viewBox="0 0 18.897 19.711">
  <g id="cogwheel" transform="translate(0.138 0.1)">
    <path id="Path_32425" data-name="Path 32425" d="M141.713,157.461a4.065,4.065,0,1,1,4.065-4.065A4.069,4.069,0,0,1,141.713,157.461Zm0-6.91a2.845,2.845,0,1,0,2.845,2.845A2.848,2.848,0,0,0,141.713,150.551Zm0,0" transform="translate(-132.403 -143.641)" fill="#171e14" stroke="#171e14" stroke-width="0.2"/>
    <path id="Path_32426" data-name="Path 32426" d="M10.662,19.511h-2.7a1.41,1.41,0,0,1-1.366-1.1l-.342-1.522a7.473,7.473,0,0,1-1.589-.923l-1.482.468a1.409,1.409,0,0,1-1.645-.641L.185,13.464a1.421,1.421,0,0,1,.261-1.735l1.149-1.056a8.226,8.226,0,0,1-.052-.918,8.4,8.4,0,0,1,.051-.918L.452,7.787A1.419,1.419,0,0,1,.181,6.054L1.537,3.709a1.409,1.409,0,0,1,1.639-.636l1.484.469a7.48,7.48,0,0,1,1.589-.923L6.592,1.1A1.409,1.409,0,0,1,7.958,0h2.7a1.41,1.41,0,0,1,1.366,1.1L12.37,2.62a7.473,7.473,0,0,1,1.589.923l1.482-.468a1.41,1.41,0,0,1,1.645.641l1.348,2.331a1.421,1.421,0,0,1-.261,1.735L17.025,8.838a8.252,8.252,0,0,1,0,1.836l1.143,1.05.006,0a1.417,1.417,0,0,1,.265,1.727L17.082,15.8a1.406,1.406,0,0,1-1.64.635l-1.485-.469a7.483,7.483,0,0,1-1.588.923l-.343,1.523a1.407,1.407,0,0,1-1.365,1.1Zm-5.877-4.83a.61.61,0,0,1,.388.139,6.262,6.262,0,0,0,1.812,1.051.609.609,0,0,1,.384.438l.414,1.837a.183.183,0,0,0,.176.145h2.7a.181.181,0,0,0,.176-.143l.415-1.839a.609.609,0,0,1,.384-.438,6.274,6.274,0,0,0,1.812-1.051.608.608,0,0,1,.572-.111l1.789.565a.182.182,0,0,0,.215-.075l1.356-2.345a.2.2,0,0,0-.039-.235l-1.372-1.262a.609.609,0,0,1-.19-.539,7.061,7.061,0,0,0,0-2.127.61.61,0,0,1,.19-.539l1.375-1.265a.2.2,0,0,0,.032-.239L16.029,4.318a.186.186,0,0,0-.221-.081L14.021,4.8a.608.608,0,0,1-.571-.111,6.262,6.262,0,0,0-1.812-1.051.609.609,0,0,1-.384-.438L10.84,1.363a.186.186,0,0,0-.178-.143h-2.7a.181.181,0,0,0-.175.143L7.367,3.2a.61.61,0,0,1-.384.438A6.256,6.256,0,0,0,5.173,4.691.612.612,0,0,1,4.6,4.8L2.812,4.237a.184.184,0,0,0-.215.075L1.24,6.657a.2.2,0,0,0,.042.237L2.653,8.153a.61.61,0,0,1,.19.539,7.06,7.06,0,0,0,0,2.127.61.61,0,0,1-.19.539L1.277,12.623a.2.2,0,0,0-.032.239l1.348,2.331a.187.187,0,0,0,.221.081L4.6,14.709a.594.594,0,0,1,.184-.028Zm0,0" transform="translate(0)" fill="#171e14" stroke="#171e14" stroke-width="0.2"/>
  </g>
</svg>
