<svg xmlns="http://www.w3.org/2000/svg" width="14.589" height="14.61" viewBox="0 0 14.589 14.61">
  <g id="confetti" transform="translate(-2.668 -2.56)">
    <path id="Path_32390" data-name="Path 32390" d="M16.031,8.253a.56.56,0,0,0-.52-.353h0A.56.56,0,0,0,15,8.264,9.424,9.424,0,0,1,12.612,11.9a9.469,9.469,0,0,1-3.766,2.166.567.567,0,0,0-.078,1.052l10.969,5.109a.593.593,0,0,0,.213.039.56.56,0,0,0,.52-.767Zm.728,9.346-1.981-.923a10.185,10.185,0,0,0,1.2-1.735,10.347,10.347,0,0,0,.778-1.813l.856,2.16v.034a9.351,9.351,0,0,1-.856,2.278Zm-3.4-4.885a10.538,10.538,0,0,0,2.115-2.8l.554,1.4A9.424,9.424,0,0,1,14.99,14.4a9.3,9.3,0,0,1-1.276,1.78l-3.279-1.511A10.415,10.415,0,0,0,13.361,12.713Zm4.4,5.356a9.843,9.843,0,0,0,.5-1.119l.655,1.64Z" transform="translate(-3.252 -3.097)" fill="#079628"/>
    <path id="Path_32391" data-name="Path 32391" d="M14.225,6.443a.561.561,0,1,0,.935-.621L14.041,4.143a.561.561,0,1,0-.935.621Z" transform="translate(-5.263 -1.332)" fill="#079628"/>
    <path id="Path_32392" data-name="Path 32392" d="M6.393,14.523l-1.679-.56a.56.56,0,1,0-.353,1.058l1.679.56a.476.476,0,0,0,.168.006.542.542,0,0,0,.185-1.063Z" transform="translate(-1.264 -5.747)" fill="#079628"/>
    <path id="Path_32393" data-name="Path 32393" d="M9.2,9.873l2.238,2.238a.558.558,0,0,0,.789-.789L9.993,9.084a.56.56,0,0,0-.789.789Z" transform="translate(-3.526 -3.559)" fill="#079628"/>
  </g>
</svg>
